<?xml version="1.0" encoding="UTF-8"?>
<!DOCTYPE svg PUBLIC "-//W3C//DTD SVG 1.1//EN" "http://www.w3.org/Graphics/SVG/1.1/DTD/svg11.dtd">
<svg xmlns="http://www.w3.org/2000/svg" version="1.1" width="500px" height="500px" style="shape-rendering:geometricPrecision; text-rendering:geometricPrecision; image-rendering:optimizeQuality; fill-rule:evenodd; clip-rule:evenodd" xmlns:xlink="http://www.w3.org/1999/xlink">
<g><path style="opacity:1" fill="#fefefe" d="M -0.5,-0.5 C 166.167,-0.5 332.833,-0.5 499.5,-0.5C 499.5,166.167 499.5,332.833 499.5,499.5C 332.833,499.5 166.167,499.5 -0.5,499.5C -0.5,332.833 -0.5,166.167 -0.5,-0.5 Z"/></g>
<g><path style="opacity:1" fill="#dcc8c3" d="M 239.5,86.5 C 303.85,85.7491 353.683,112.082 389,165.5C 422.753,228.341 418.419,288.341 376,345.5C 338.447,388.697 290.947,408.53 233.5,405C 165.208,394.792 119.375,357.292 96,292.5C 77.7343,221.63 97.2343,163.463 154.5,118C 180.062,99.87 208.395,89.37 239.5,86.5 Z"/></g>
<g><path style="opacity:1" fill="#bb9c4b" d="M 267.5,108.5 C 266.662,108.158 266.328,107.492 266.5,106.5C 269.258,104.952 271.758,105.285 274,107.5C 274.688,108.332 274.521,108.998 273.5,109.5C 271.605,107.514 269.605,107.181 267.5,108.5 Z"/></g>
<g><path style="opacity:1" fill="#baa171" d="M 266.5,106.5 C 266.328,107.492 266.662,108.158 267.5,108.5C 266.399,110.988 267.066,112.988 269.5,114.5C 268.167,114.5 266.833,114.5 265.5,114.5C 265.106,113.033 264.773,111.533 264.5,110C 264.387,108.301 265.053,107.134 266.5,106.5 Z"/></g>
<g><path style="opacity:1" fill="#9c803f" d="M 309.5,113.5 C 309.167,113.5 308.833,113.5 308.5,113.5C 310.081,111.858 310.747,109.858 310.5,107.5C 307.549,107.713 304.882,107.046 302.5,105.5C 305.102,103.549 307.936,103.216 311,104.5C 313.374,108.12 312.874,111.12 309.5,113.5 Z"/></g>
<g><path style="opacity:1" fill="#a98a32" d="M 200.5,117.5 C 198.97,116.789 197.637,115.789 196.5,114.5C 196.329,109.506 198.662,107.672 203.5,109C 207.825,113.511 206.825,116.344 200.5,117.5 Z"/></g>
<g><path style="opacity:1" fill="#c9af7f" d="M 308.5,113.5 C 308.833,113.5 309.167,113.5 309.5,113.5C 310.328,117.66 310.328,121.993 309.5,126.5C 308.689,122.582 307.689,118.582 306.5,114.5C 304.099,117.413 302.766,117.079 302.5,113.5C 304.5,113.5 306.5,113.5 308.5,113.5 Z"/></g>
<g><path style="opacity:1" fill="#af913a" d="M 302.5,105.5 C 304.882,107.046 307.549,107.713 310.5,107.5C 310.747,109.858 310.081,111.858 308.5,113.5C 306.5,113.5 304.5,113.5 302.5,113.5C 302.766,117.079 304.099,117.413 306.5,114.5C 307.689,118.582 308.689,122.582 309.5,126.5C 314.648,129.575 319.981,132.409 325.5,135C 326.381,135.708 327.047,136.542 327.5,137.5C 327.167,137.5 326.833,137.5 326.5,137.5C 318.91,134.372 311.577,130.705 304.5,126.5C 300.848,129.176 299.514,132.842 300.5,137.5C 300.5,138.5 300.5,139.5 300.5,140.5C 297.619,139.678 296.619,138.011 297.5,135.5C 296.783,132.677 295.783,130.01 294.5,127.5C 296.415,127.784 298.081,127.451 299.5,126.5C 301.296,125.206 303.296,124.206 305.5,123.5C 305.376,122.893 305.043,122.56 304.5,122.5C 302.523,120.186 300.523,117.853 298.5,115.5C 300.664,112.405 301.998,109.072 302.5,105.5 Z"/></g>
<g><path style="opacity:1" fill="#af924b" d="M 265.5,114.5 C 266.833,114.5 268.167,114.5 269.5,114.5C 280.577,117.803 291.744,120.803 303,123.5C 303.765,123.43 304.265,123.097 304.5,122.5C 305.043,122.56 305.376,122.893 305.5,123.5C 303.296,124.206 301.296,125.206 299.5,126.5C 299.047,125.542 298.381,124.708 297.5,124C 288.984,121.998 280.318,121.164 271.5,121.5C 271.703,119.61 271.037,118.11 269.5,117C 257.109,116.083 244.776,116.416 232.5,118C 239.873,119.352 246.54,122.352 252.5,127C 254.473,127.495 256.473,127.662 258.5,127.5C 258.5,127.833 258.5,128.167 258.5,128.5C 255.075,128.367 254.742,129.033 257.5,130.5C 259.288,133.228 259.788,136.228 259,139.5C 257.211,141.229 255.044,141.896 252.5,141.5C 252.5,140.167 252.5,138.833 252.5,137.5C 253.833,137.5 255.167,137.5 256.5,137.5C 255.653,128.913 250.987,126.08 242.5,129C 235.447,129.986 228.447,131.153 221.5,132.5C 221.5,132.167 221.5,131.833 221.5,131.5C 229.331,129.516 237.331,128.182 245.5,127.5C 245.67,126.178 245.337,125.011 244.5,124C 238.148,123.185 231.815,122.019 225.5,120.5C 215.138,120.901 205.471,123.568 196.5,128.5C 196.158,127.662 195.492,127.328 194.5,127.5C 208.338,119.616 223.338,115.449 239.5,115C 248.16,114.5 256.827,114.334 265.5,114.5 Z"/></g>
<g><path style="opacity:1" fill="#dac6be" d="M 221.5,131.5 C 208.216,134.146 196.216,139.48 185.5,147.5C 179.878,151.122 174.545,155.122 169.5,159.5C 164.509,164.269 159.842,169.436 155.5,175C 151.67,175.179 149.503,177.012 149,180.5C 150.554,178.073 151.721,178.073 152.5,180.5C 146.941,187.412 142.608,195.079 139.5,203.5C 139.217,204.289 138.717,204.956 138,205.5C 137.293,203.919 136.46,202.419 135.5,201C 132.978,200.911 132.812,201.745 135,203.5C 135.826,210.609 135.326,217.609 133.5,224.5C 132.513,229.117 131.846,233.784 131.5,238.5C 131.66,240.199 131.494,241.866 131,243.5C 128.255,237.031 126.421,230.364 125.5,223.5C 124.194,222.533 123.527,221.199 123.5,219.5C 125.299,208.963 128.632,198.963 133.5,189.5C 134.167,189.167 134.833,188.833 135.5,188.5C 136.473,189.984 137.807,190.484 139.5,190C 140.423,187.959 140.756,185.792 140.5,183.5C 143.973,181.363 146.306,178.363 147.5,174.5C 148.674,173.486 149.34,172.153 149.5,170.5C 152.494,165.207 155.494,159.873 158.5,154.5C 162.897,150.096 167.564,146.096 172.5,142.5C 176.756,141.026 180.422,138.526 183.5,135C 187.855,132.822 192.189,130.656 196.5,128.5C 205.471,123.568 215.138,120.901 225.5,120.5C 231.815,122.019 238.148,123.185 244.5,124C 245.337,125.011 245.67,126.178 245.5,127.5C 237.331,128.182 229.331,129.516 221.5,131.5 Z"/></g>
<g><path style="opacity:1" fill="#b79e6c" d="M 192.5,121.5 C 191.115,122.574 189.949,123.907 189,125.5C 188.308,126.437 188.475,127.103 189.5,127.5C 188.542,128.962 187.376,130.295 186,131.5C 185.667,129.953 186.167,128.62 187.5,127.5C 186.873,126.583 186.539,125.583 186.5,124.5C 188.975,123.313 189.975,121.313 189.5,118.5C 190.5,118.5 191.5,118.5 192.5,118.5C 192.5,119.5 192.5,120.5 192.5,121.5 Z"/></g>
<g><path style="opacity:1" fill="#c4ad8f" d="M 196.5,114.5 C 197.637,115.789 198.97,116.789 200.5,117.5C 198.213,121.122 195.547,124.455 192.5,127.5C 191.5,126.167 190.5,126.167 189.5,127.5C 188.475,127.103 188.308,126.437 189,125.5C 189.949,123.907 191.115,122.574 192.5,121.5C 192.56,122.043 192.893,122.376 193.5,122.5C 197.284,120.809 198.284,118.143 196.5,114.5 Z"/></g>
<g><path style="opacity:1" fill="#d9c5bc" d="M 299.5,126.5 C 298.081,127.451 296.415,127.784 294.5,127.5C 295.783,130.01 296.783,132.677 297.5,135.5C 290.338,132.891 283.005,130.891 275.5,129.5C 273.915,128.467 272.581,127.134 271.5,125.5C 270.081,124.549 268.415,124.216 266.5,124.5C 266.5,125.5 266.5,126.5 266.5,127.5C 263.833,127.5 261.167,127.5 258.5,127.5C 256.473,127.662 254.473,127.495 252.5,127C 246.54,122.352 239.873,119.352 232.5,118C 244.776,116.416 257.109,116.083 269.5,117C 271.037,118.11 271.703,119.61 271.5,121.5C 280.318,121.164 288.984,121.998 297.5,124C 298.381,124.708 299.047,125.542 299.5,126.5 Z"/></g>
<g><path style="opacity:1" fill="#b3953f" d="M 186.5,124.5 C 186.539,125.583 186.873,126.583 187.5,127.5C 186.167,128.62 185.667,129.953 186,131.5C 187.376,130.295 188.542,128.962 189.5,127.5C 190.5,126.167 191.5,126.167 192.5,127.5C 193.167,127.5 193.833,127.5 194.5,127.5C 195.492,127.328 196.158,127.662 196.5,128.5C 192.189,130.656 187.855,132.822 183.5,135C 180.422,138.526 176.756,141.026 172.5,142.5C 172.5,141.833 172.5,141.167 172.5,140.5C 176.147,139.017 178.647,136.35 180,132.5C 182.792,131.085 184.292,128.751 184.5,125.5C 184.957,124.702 185.624,124.369 186.5,124.5 Z"/></g>
<g><path style="opacity:1" fill="#bfa67d" d="M 271.5,125.5 C 270.448,125.351 269.448,125.517 268.5,126C 266.358,131.159 263.025,131.993 258.5,128.5C 258.5,128.167 258.5,127.833 258.5,127.5C 261.167,127.5 263.833,127.5 266.5,127.5C 266.5,126.5 266.5,125.5 266.5,124.5C 268.415,124.216 270.081,124.549 271.5,125.5 Z"/></g>
<g><path style="opacity:1" fill="#dbc6bf" d="M 326.5,137.5 C 329.576,141.207 333.242,144.207 337.5,146.5C 338.833,148.5 340.5,150.167 342.5,151.5C 342.833,152.5 343.5,153.167 344.5,153.5C 345.939,155.36 347.605,157.027 349.5,158.5C 352.831,162 355.998,165.666 359,169.5C 359.667,170.833 359.667,172.167 359,173.5C 356.762,175.309 355.595,177.642 355.5,180.5C 355.649,181.552 355.483,182.552 355,183.5C 354.667,183.167 354.333,182.833 354,182.5C 351.195,175.947 348.695,169.28 346.5,162.5C 344.477,164.173 342.144,164.84 339.5,164.5C 330.98,154.906 320.98,147.24 309.5,141.5C 306.456,140.483 303.456,139.149 300.5,137.5C 299.514,132.842 300.848,129.176 304.5,126.5C 311.577,130.705 318.91,134.372 326.5,137.5 Z"/></g>
<g><path style="opacity:1" fill="#dcc8c3" d="M 257.5,130.5 C 262.095,131.815 266.761,132.815 271.5,133.5C 271.5,132.5 271.5,131.5 271.5,130.5C 272.5,130.5 273.5,130.5 274.5,130.5C 281.577,132.305 288.577,134.639 295.5,137.5C 294.082,139.923 292.082,141.589 289.5,142.5C 286.155,141.823 285.822,140.49 288.5,138.5C 286.955,137.548 285.288,137.215 283.5,137.5C 282.833,142.833 285.167,145.167 290.5,144.5C 291.978,145.448 292.978,146.781 293.5,148.5C 293.5,148.833 293.5,149.167 293.5,149.5C 294.209,150.404 295.209,150.737 296.5,150.5C 296.5,148.833 296.5,147.167 296.5,145.5C 297.791,145.737 298.791,145.404 299.5,144.5C 300.338,144.158 300.672,143.492 300.5,142.5C 301.151,141.909 301.818,141.243 302.5,140.5C 304.075,141.456 305.742,142.123 307.5,142.5C 318.464,148.241 328.298,155.574 337,164.5C 337.483,165.448 337.649,166.448 337.5,167.5C 337.338,169.527 337.505,171.527 338,173.5C 339.347,175.466 340.847,175.799 342.5,174.5C 343.167,173.833 343.833,173.167 344.5,172.5C 348.885,177.55 352.885,182.884 356.5,188.5C 361.516,197.534 364.516,207.201 365.5,217.5C 364.167,217.5 362.833,217.5 361.5,217.5C 361.653,211.676 360.987,211.343 359.5,216.5C 360.711,218.484 362.044,220.484 363.5,222.5C 364.833,221.167 366.167,219.833 367.5,218.5C 371.107,229.186 372.44,240.186 371.5,251.5C 371.5,252.167 371.5,252.833 371.5,253.5C 370.163,252.685 369.163,251.518 368.5,250C 367.552,249.517 366.552,249.351 365.5,249.5C 364.833,251.819 364.666,254.153 365,256.5C 365.414,256.957 365.914,257.291 366.5,257.5C 367.281,256.271 367.781,254.938 368,253.5C 369.043,255.833 369.876,258.166 370.5,260.5C 370.387,265.518 370.053,270.518 369.5,275.5C 368.166,278.427 366.833,281.427 365.5,284.5C 364.618,283.24 363.618,282.074 362.5,281C 359.978,280.911 359.812,281.745 362,283.5C 363.253,291.439 361.419,298.439 356.5,304.5C 355.837,302.958 355.17,301.291 354.5,299.5C 353.575,300.641 352.741,300.641 352,299.5C 351.244,297.191 351.744,295.191 353.5,293.5C 351.741,292.246 350.241,292.579 349,294.5C 348.502,297.482 348.335,300.482 348.5,303.5C 349.5,303.5 350.5,303.5 351.5,303.5C 352.342,306.154 352.842,308.821 353,311.5C 350.78,316.384 347.78,320.718 344,324.5C 343.374,322.287 343.541,320.12 344.5,318C 343.833,317 343.167,316 342.5,315C 344.013,313.121 344.679,310.954 344.5,308.5C 342.381,308.468 341.048,309.468 340.5,311.5C 339.514,315.97 339.181,320.637 339.5,325.5C 339.401,328.63 338.234,331.296 336,333.5C 330.972,337.699 326.139,342.032 321.5,346.5C 315.122,349.841 308.789,353.174 302.5,356.5C 290.96,361.952 278.96,365.619 266.5,367.5C 246.141,369.547 226.474,366.881 207.5,359.5C 197.096,355.097 187.429,349.431 178.5,342.5C 173.434,338.437 169.101,333.771 165.5,328.5C 164.705,324.54 162.371,322.207 158.5,321.5C 156.731,314.996 156.065,308.33 156.5,301.5C 155.167,301.5 153.833,301.5 152.5,301.5C 152.5,303.167 152.5,304.833 152.5,306.5C 151.073,304.852 150.24,302.852 150,300.5C 149.333,295.5 149.333,290.5 150,285.5C 151.196,283.714 152.696,282.381 154.5,281.5C 155.822,281.67 156.989,281.337 158,280.5C 158.789,278.288 158.622,276.288 157.5,274.5C 157.586,273.504 157.252,272.671 156.5,272C 151.579,268.061 148.245,269.061 146.5,275C 146.519,276.833 147.185,278.333 148.5,279.5C 149.684,281.854 149.518,284.187 148,286.5C 147.71,293.036 147.544,299.369 147.5,305.5C 147.5,304.833 147.167,304.5 146.5,304.5C 142.627,295.208 139.96,285.541 138.5,275.5C 139.476,270.554 141.809,266.221 145.5,262.5C 144.635,261.417 143.635,261.251 142.5,262C 141.333,263.833 140.167,265.667 139,267.5C 137.997,264.16 136.497,261.16 134.5,258.5C 134.167,257.833 133.833,257.167 133.5,256.5C 133.174,250.402 133.841,249.735 135.5,254.5C 136.167,255.833 136.833,255.833 137.5,254.5C 135.92,251.58 136.253,248.914 138.5,246.5C 136.585,243.849 135.085,244.183 134,247.5C 133.133,239.696 133.633,232.03 135.5,224.5C 136.777,219.934 138.444,215.6 140.5,211.5C 141.5,211.5 142.5,211.5 143.5,211.5C 143.5,210.5 143.5,209.5 143.5,208.5C 142.325,208.719 141.325,208.386 140.5,207.5C 141.193,206.482 141.859,205.482 142.5,204.5C 144.833,202.833 146.833,200.833 148.5,198.5C 151.173,196.824 153.84,195.157 156.5,193.5C 158.056,194.547 159.723,195.214 161.5,195.5C 161.5,194.5 161.5,193.5 161.5,192.5C 160.325,192.719 159.325,192.386 158.5,191.5C 163.942,186.969 166.275,181.303 165.5,174.5C 164.702,176.078 164.202,177.744 164,179.5C 163.014,180.171 161.847,180.171 160.5,179.5C 159.5,179.5 158.5,179.5 157.5,179.5C 157.372,177.345 157.872,175.345 159,173.5C 163.082,169.924 166.582,165.924 169.5,161.5C 176.732,156.688 184.732,154.021 193.5,153.5C 195.857,153.337 198.19,153.503 200.5,154C 199.619,154.708 198.953,155.542 198.5,156.5C 196.5,156.5 194.5,156.5 192.5,156.5C 192.33,157.822 192.663,158.989 193.5,160C 191.1,160.186 188.766,160.686 186.5,161.5C 186.833,162.167 187.167,162.833 187.5,163.5C 184.52,166.54 184.853,168.874 188.5,170.5C 190.171,170.332 191.504,169.665 192.5,168.5C 193.653,167.687 193.653,166.687 192.5,165.5C 193.993,164.859 194.993,163.859 195.5,162.5C 196.833,160.833 198.167,159.167 199.5,157.5C 200.965,156.594 201.965,155.261 202.5,153.5C 208.529,151.822 214.529,150.155 220.5,148.5C 220.206,145.246 218.873,142.579 216.5,140.5C 215.167,140.5 213.833,140.5 212.5,140.5C 212.5,141.5 212.5,142.5 212.5,143.5C 213.5,143.5 214.5,143.5 215.5,143.5C 216.497,143.47 217.164,143.97 217.5,145C 211.951,151.13 205.951,151.797 199.5,147C 196.833,146.667 194.167,146.333 191.5,146C 201.061,140.294 211.061,135.794 221.5,132.5C 228.447,131.153 235.447,129.986 242.5,129C 250.987,126.08 255.653,128.913 256.5,137.5C 255.167,137.5 253.833,137.5 252.5,137.5C 252.5,138.833 252.5,140.167 252.5,141.5C 255.044,141.896 257.211,141.229 259,139.5C 259.788,136.228 259.288,133.228 257.5,130.5 Z"/></g>
<g><path style="opacity:1" fill="#a98a2f" d="M 271.5,125.5 C 272.581,127.134 273.915,128.467 275.5,129.5C 275.5,130.167 275.167,130.5 274.5,130.5C 273.5,130.5 272.5,130.5 271.5,130.5C 271.5,131.5 271.5,132.5 271.5,133.5C 266.761,132.815 262.095,131.815 257.5,130.5C 254.742,129.033 255.075,128.367 258.5,128.5C 263.025,131.993 266.358,131.159 268.5,126C 269.448,125.517 270.448,125.351 271.5,125.5 Z"/></g>
<g><path style="opacity:1" fill="#a68835" d="M 338.5,138.5 C 336.833,138.5 335.167,138.5 333.5,138.5C 330.111,134.161 330.944,130.828 336,128.5C 341.944,130.93 342.777,134.263 338.5,138.5 Z"/></g>
<g><path style="opacity:1" fill="#bca382" d="M 151.5,132.5 C 151.823,136.226 151.489,139.893 150.5,143.5C 149.261,143.058 148.261,142.391 147.5,141.5C 148.5,141.5 149.5,141.5 150.5,141.5C 150.19,138.287 150.523,135.287 151.5,132.5 Z"/></g>
<g><path style="opacity:1" fill="#bea36e" d="M 262.5,134.5 C 266.702,135.952 267.536,138.619 265,142.5C 263.829,144.616 262.329,145.282 260.5,144.5C 263.598,141.677 264.265,138.344 262.5,134.5 Z"/></g>
<g><path style="opacity:1" fill="#bda57d" d="M 300.5,137.5 C 303.456,139.149 306.456,140.483 309.5,141.5C 308.508,141.328 307.842,141.662 307.5,142.5C 305.742,142.123 304.075,141.456 302.5,140.5C 301.818,141.243 301.151,141.909 300.5,142.5C 300.5,141.833 300.5,141.167 300.5,140.5C 300.5,139.5 300.5,138.5 300.5,137.5 Z"/></g>
<g><path style="opacity:1" fill="#cfb57e" d="M 221.5,138.5 C 223.912,138.694 224.912,140.027 224.5,142.5C 223.5,142.5 222.5,142.5 221.5,142.5C 221.5,141.167 221.5,139.833 221.5,138.5 Z"/></g>
<g><path style="opacity:1" fill="#b89b54" d="M 275.5,129.5 C 283.005,130.891 290.338,132.891 297.5,135.5C 296.619,138.011 297.619,139.678 300.5,140.5C 300.5,141.167 300.5,141.833 300.5,142.5C 300.672,143.492 300.338,144.158 299.5,144.5C 297.883,143.411 297.05,141.744 297,139.5C 295.195,141.826 293.028,143.492 290.5,144.5C 285.167,145.167 282.833,142.833 283.5,137.5C 285.288,137.215 286.955,137.548 288.5,138.5C 285.822,140.49 286.155,141.823 289.5,142.5C 292.082,141.589 294.082,139.923 295.5,137.5C 288.577,134.639 281.577,132.305 274.5,130.5C 275.167,130.5 275.5,130.167 275.5,129.5 Z"/></g>
<g><path style="opacity:1" fill="#bba270" d="M 147.5,141.5 C 145.473,141.338 143.473,141.505 141.5,142C 143.058,142.21 144.391,142.71 145.5,143.5C 143.219,143.077 141.552,143.744 140.5,145.5C 139.833,145.167 139.167,144.833 138.5,144.5C 138.511,142.983 139.177,141.816 140.5,141C 143.039,140.204 145.372,140.371 147.5,141.5 Z"/></g>
<g><path style="opacity:1" fill="#b49a62" d="M 326.5,137.5 C 326.833,137.5 327.167,137.5 327.5,137.5C 330.615,139.231 333.615,141.231 336.5,143.5C 337.429,142.311 337.762,140.978 337.5,139.5C 335.901,139.768 334.568,139.434 333.5,138.5C 335.167,138.5 336.833,138.5 338.5,138.5C 339.833,139.833 341.167,141.167 342.5,142.5C 341.883,142.389 341.383,142.056 341,141.5C 340.51,142.793 340.343,144.127 340.5,145.5C 339.209,145.263 338.209,145.596 337.5,146.5C 333.242,144.207 329.576,141.207 326.5,137.5 Z"/></g>
<g><path style="opacity:1" fill="#d4bea6" d="M 299.5,144.5 C 298.791,145.404 297.791,145.737 296.5,145.5C 296.5,147.167 296.5,148.833 296.5,150.5C 295.209,150.737 294.209,150.404 293.5,149.5C 294.586,149.38 295.253,148.713 295.5,147.5C 295.167,146.833 294.833,146.167 294.5,145.5C 293.614,146.325 293.281,147.325 293.5,148.5C 292.978,146.781 291.978,145.448 290.5,144.5C 293.028,143.492 295.195,141.826 297,139.5C 297.05,141.744 297.883,143.411 299.5,144.5 Z"/></g>
<g><path style="opacity:1" fill="#ab8d3d" d="M 342.5,142.5 C 342.448,144.903 342.781,147.236 343.5,149.5C 343.672,150.492 343.338,151.158 342.5,151.5C 340.5,150.167 338.833,148.5 337.5,146.5C 338.209,145.596 339.209,145.263 340.5,145.5C 340.343,144.127 340.51,142.793 341,141.5C 341.383,142.056 341.883,142.389 342.5,142.5 Z"/></g>
<g><path style="opacity:1" fill="#c7ac69" d="M 293.5,149.5 C 293.5,149.167 293.5,148.833 293.5,148.5C 293.281,147.325 293.614,146.325 294.5,145.5C 294.833,146.167 295.167,146.833 295.5,147.5C 295.253,148.713 294.586,149.38 293.5,149.5 Z"/></g>
<g><path style="opacity:1" fill="#b89e66" d="M 307.5,142.5 C 307.842,141.662 308.508,141.328 309.5,141.5C 320.98,147.24 330.98,154.906 339.5,164.5C 338.833,165.5 338.167,166.5 337.5,167.5C 337.649,166.448 337.483,165.448 337,164.5C 328.298,155.574 318.464,148.241 307.5,142.5 Z"/></g>
<g><path style="opacity:1" fill="#9d7f31" d="M 138.5,144.5 C 139.167,144.833 139.833,145.167 140.5,145.5C 143.127,145.293 144.793,146.46 145.5,149C 145.162,151.609 144.162,153.776 142.5,155.5C 142.423,154.25 141.756,153.417 140.5,153C 141.448,152.517 142.448,152.351 143.5,152.5C 143.428,148.464 141.761,147.63 138.5,150C 139.696,150.654 139.696,151.154 138.5,151.5C 137.184,148.972 136.017,148.972 135,151.5C 134.292,150.619 133.458,149.953 132.5,149.5C 133.268,146.438 135.268,144.772 138.5,144.5 Z"/></g>
<g><path style="opacity:1" fill="#b79b58" d="M 172.5,140.5 C 172.5,141.167 172.5,141.833 172.5,142.5C 167.564,146.096 162.897,150.096 158.5,154.5C 157.85,154.196 157.183,153.863 156.5,153.5C 155.513,150.232 155.18,146.898 155.5,143.5C 156.166,146.358 156.833,149.358 157.5,152.5C 161.942,147.716 166.942,143.716 172.5,140.5 Z"/></g>
<g><path style="opacity:1" fill="#d0b9a9" d="M 191.5,148.5 C 194.722,148.108 197.722,148.608 200.5,150C 197.964,150.186 195.631,150.686 193.5,151.5C 189.541,152.55 185.541,153.05 181.5,153C 184.48,150.676 187.813,149.176 191.5,148.5 Z"/></g>
<g><path style="opacity:1" fill="#b69c63" d="M 221.5,131.5 C 221.5,131.833 221.5,132.167 221.5,132.5C 211.061,135.794 201.061,140.294 191.5,146C 194.167,146.333 196.833,146.667 199.5,147C 205.951,151.797 211.951,151.13 217.5,145C 217.164,143.97 216.497,143.47 215.5,143.5C 216.11,142.609 216.443,141.609 216.5,140.5C 218.873,142.579 220.206,145.246 220.5,148.5C 214.529,150.155 208.529,151.822 202.5,153.5C 201.965,155.261 200.965,156.594 199.5,157.5C 199.5,156.833 199.167,156.5 198.5,156.5C 198.953,155.542 199.619,154.708 200.5,154C 198.19,153.503 195.857,153.337 193.5,153.5C 195.292,152.691 197.292,152.191 199.5,152C 197.527,151.505 195.527,151.338 193.5,151.5C 195.631,150.686 197.964,150.186 200.5,150C 197.722,148.608 194.722,148.108 191.5,148.5C 189.735,147.539 187.735,147.205 185.5,147.5C 196.216,139.48 208.216,134.146 221.5,131.5 Z"/></g>
<g><path style="opacity:1" fill="#ba9b3c" d="M 216.5,140.5 C 216.443,141.609 216.11,142.609 215.5,143.5C 214.5,143.5 213.5,143.5 212.5,143.5C 212.5,142.5 212.5,141.5 212.5,140.5C 213.833,140.5 215.167,140.5 216.5,140.5 Z"/></g>
<g><path style="opacity:1" fill="#b09244" d="M 185.5,147.5 C 187.735,147.205 189.735,147.539 191.5,148.5C 187.813,149.176 184.48,150.676 181.5,153C 185.541,153.05 189.541,152.55 193.5,151.5C 195.527,151.338 197.527,151.505 199.5,152C 197.292,152.191 195.292,152.691 193.5,153.5C 184.732,154.021 176.732,156.688 169.5,161.5C 169.5,160.833 169.5,160.167 169.5,159.5C 174.545,155.122 179.878,151.122 185.5,147.5 Z"/></g>
<g><path style="opacity:1" fill="#b19234" d="M 142.5,155.5 C 141.594,157.914 139.928,158.747 137.5,158C 133.512,156.516 131.846,153.683 132.5,149.5C 133.458,149.953 134.292,150.619 135,151.5C 136.017,148.972 137.184,148.972 138.5,151.5C 139.696,151.154 139.696,150.654 138.5,150C 141.761,147.63 143.428,148.464 143.5,152.5C 142.448,152.351 141.448,152.517 140.5,153C 141.756,153.417 142.423,154.25 142.5,155.5 Z"/></g>
<g><path style="opacity:1" fill="#bd9e3a" d="M 344.5,153.5 C 346.309,152.709 348.309,152.709 350.5,153.5C 350.784,155.415 350.451,157.081 349.5,158.5C 347.605,157.027 345.939,155.36 344.5,153.5 Z"/></g>
<g><path style="opacity:1" fill="#b3985b" d="M 362.5,162.5 C 364.048,162.179 364.715,161.179 364.5,159.5C 364.489,157.983 363.823,156.816 362.5,156C 360.377,155.185 358.377,154.185 356.5,153C 365.754,153.277 369.42,158.111 367.5,167.5C 365.042,167.227 363.375,168.227 362.5,170.5C 363.757,172.679 365.257,174.679 367,176.5C 371.463,185.402 375.63,194.402 379.5,203.5C 378.167,203.5 377.5,204.167 377.5,205.5C 374.229,195.886 370.062,186.553 365,177.5C 363.667,176.167 362.333,174.833 361,173.5C 357.966,176.514 356.799,180.181 357.5,184.5C 356.833,183.167 356.167,181.833 355.5,180.5C 355.595,177.642 356.762,175.309 359,173.5C 359.667,172.167 359.667,170.833 359,169.5C 355.998,165.666 352.831,162 349.5,158.5C 350.451,157.081 350.784,155.415 350.5,153.5C 348.309,152.709 346.309,152.709 344.5,153.5C 343.5,153.167 342.833,152.5 342.5,151.5C 343.338,151.158 343.672,150.492 343.5,149.5C 344.117,149.611 344.617,149.944 345,150.5C 345.494,148.866 345.66,147.199 345.5,145.5C 346.5,145.5 347.5,145.5 348.5,145.5C 348.5,147.833 348.5,150.167 348.5,152.5C 349.5,152.5 350.5,152.5 351.5,152.5C 351.34,154.199 351.506,155.866 352,157.5C 354.692,160.692 357.192,164.025 359.5,167.5C 360.325,168.386 361.325,168.719 362.5,168.5C 362.5,166.5 362.5,164.5 362.5,162.5 Z"/></g>
<g><path style="opacity:1" fill="#c0a152" d="M 364.5,159.5 C 364.715,161.179 364.048,162.179 362.5,162.5C 361.754,160.657 360.421,159.324 358.5,158.5C 360.757,157.23 362.757,157.564 364.5,159.5 Z"/></g>
<g><path style="opacity:1" fill="#b09246" d="M 198.5,156.5 C 199.167,156.5 199.5,156.833 199.5,157.5C 198.167,159.167 196.833,160.833 195.5,162.5C 192.658,163.172 190.158,164.506 188,166.5C 187.312,167.332 187.479,167.998 188.5,168.5C 189.995,167.295 191.328,167.295 192.5,168.5C 191.504,169.665 190.171,170.332 188.5,170.5C 184.853,168.874 184.52,166.54 187.5,163.5C 187.167,162.833 186.833,162.167 186.5,161.5C 188.766,160.686 191.1,160.186 193.5,160C 192.663,158.989 192.33,157.822 192.5,156.5C 194.5,156.5 196.5,156.5 198.5,156.5 Z"/></g>
<g><path style="opacity:1" fill="#af9144" d="M 155.5,143.5 C 155.18,146.898 155.513,150.232 156.5,153.5C 157.183,153.863 157.85,154.196 158.5,154.5C 155.494,159.873 152.494,165.207 149.5,170.5C 148.508,170.672 147.842,170.338 147.5,169.5C 149.952,168.264 151.119,166.264 151,163.5C 149.961,164.71 148.794,165.71 147.5,166.5C 147.103,165.475 146.437,165.308 145.5,166C 144.947,167.878 143.947,169.378 142.5,170.5C 142.357,168.738 142.691,167.071 143.5,165.5C 141.851,164.852 140.518,163.852 139.5,162.5C 140.167,162.167 140.833,161.833 141.5,161.5C 143.474,162.704 145.474,163.537 147.5,164C 157.384,155.921 156.717,149.088 145.5,143.5C 144.391,142.71 143.058,142.21 141.5,142C 143.473,141.505 145.473,141.338 147.5,141.5C 148.261,142.391 149.261,143.058 150.5,143.5C 151.489,139.893 151.823,136.226 151.5,132.5C 151.56,131.957 151.893,131.624 152.5,131.5C 153.277,133.777 154.277,135.943 155.5,138C 154.833,139.333 154.167,140.667 153.5,142C 153.836,143.03 154.503,143.53 155.5,143.5 Z"/></g>
<g><path style="opacity:1" fill="#cfb796" d="M 147.5,169.5 C 147.5,168.5 147.5,167.5 147.5,166.5C 148.794,165.71 149.961,164.71 151,163.5C 151.119,166.264 149.952,168.264 147.5,169.5 Z"/></g>
<g><path style="opacity:1" fill="#d4bd9e" d="M 195.5,162.5 C 194.993,163.859 193.993,164.859 192.5,165.5C 193.653,166.687 193.653,167.687 192.5,168.5C 191.328,167.295 189.995,167.295 188.5,168.5C 187.479,167.998 187.312,167.332 188,166.5C 190.158,164.506 192.658,163.172 195.5,162.5 Z"/></g>
<g><path style="opacity:1" fill="#bfa575" d="M 131.5,166.5 C 136.006,165.527 138.172,167.194 138,171.5C 135.966,168.141 133.632,167.808 131,170.5C 130.421,169.072 130.588,167.738 131.5,166.5 Z"/></g>
<g><path style="opacity:1" fill="#ba9e63" d="M 169.5,159.5 C 169.5,160.167 169.5,160.833 169.5,161.5C 166.582,165.924 163.082,169.924 159,173.5C 157.872,175.345 157.372,177.345 157.5,179.5C 158.5,179.5 159.5,179.5 160.5,179.5C 160.662,181.527 160.495,183.527 160,185.5C 159.578,187.426 158.411,188.426 156.5,188.5C 157.555,185.927 157.722,183.261 157,180.5C 156.023,179.226 155.189,179.226 154.5,180.5C 153.604,181.506 152.938,181.506 152.5,180.5C 151.721,178.073 150.554,178.073 149,180.5C 149.503,177.012 151.67,175.179 155.5,175C 159.842,169.436 164.509,164.269 169.5,159.5 Z"/></g>
<g><path style="opacity:1" fill="#b0922f" d="M 147.5,166.5 C 147.5,167.5 147.5,168.5 147.5,169.5C 147.842,170.338 148.508,170.672 149.5,170.5C 149.34,172.153 148.674,173.486 147.5,174.5C 146.842,173.602 146.176,172.602 145.5,171.5C 143.775,173.092 142.775,172.758 142.5,170.5C 143.947,169.378 144.947,167.878 145.5,166C 146.437,165.308 147.103,165.475 147.5,166.5 Z"/></g>
<g><path style="opacity:1" fill="#b59852" d="M 355.5,180.5 C 356.167,181.833 356.833,183.167 357.5,184.5C 357.5,185.833 357.5,187.167 357.5,188.5C 357.167,188.5 356.833,188.5 356.5,188.5C 352.885,182.884 348.885,177.55 344.5,172.5C 343.129,168.942 343.796,168.608 346.5,171.5C 347.714,168.507 346.548,166.84 343,166.5C 340.019,167.443 339.019,169.443 340,172.5C 341.813,171.391 342.646,172.058 342.5,174.5C 340.847,175.799 339.347,175.466 338,173.5C 337.505,171.527 337.338,169.527 337.5,167.5C 338.167,166.5 338.833,165.5 339.5,164.5C 342.144,164.84 344.477,164.173 346.5,162.5C 348.695,169.28 351.195,175.947 354,182.5C 354.333,182.833 354.667,183.167 355,183.5C 355.483,182.552 355.649,181.552 355.5,180.5 Z"/></g>
<g><path style="opacity:1" fill="#cab396" d="M 344.5,172.5 C 343.833,173.167 343.167,173.833 342.5,174.5C 342.646,172.058 341.813,171.391 340,172.5C 339.019,169.443 340.019,167.443 343,166.5C 346.548,166.84 347.714,168.507 346.5,171.5C 343.796,168.608 343.129,168.942 344.5,172.5 Z"/></g>
<g><path style="opacity:1" fill="#9d7f2f" d="M 389.5,178.5 C 387.958,179.301 386.292,179.634 384.5,179.5C 384.423,178.25 383.756,177.417 382.5,177C 385.294,175.964 385.794,174.464 384,172.5C 381.467,172.95 379.3,173.95 377.5,175.5C 376.527,173.052 376.194,170.385 376.5,167.5C 386.817,164.496 391.15,168.162 389.5,178.5 Z"/></g>
<g><path style="opacity:1" fill="#dac6bf" d="M 377.5,205.5 C 379.521,209.41 380.855,213.576 381.5,218C 380.001,222.485 378.668,226.985 377.5,231.5C 376.26,234.024 375.093,236.691 374,239.5C 372.288,221.002 366.788,204.002 357.5,188.5C 357.5,187.167 357.5,185.833 357.5,184.5C 356.799,180.181 357.966,176.514 361,173.5C 362.333,174.833 363.667,176.167 365,177.5C 370.062,186.553 374.229,195.886 377.5,205.5 Z"/></g>
<g><path style="opacity:1" fill="#b79732" d="M 384.5,179.5 C 383.833,179.5 383.167,179.5 382.5,179.5C 380.809,178.136 379.142,176.803 377.5,175.5C 379.3,173.95 381.467,172.95 384,172.5C 385.794,174.464 385.294,175.964 382.5,177C 383.756,177.417 384.423,178.25 384.5,179.5 Z"/></g>
<g><path style="opacity:1" fill="#d7c3b9" d="M 156.5,188.5 C 153.5,192.167 150.167,195.5 146.5,198.5C 145.571,199.936 144.405,201.269 143,202.5C 142.333,201.5 142.333,200.5 143,199.5C 146.355,192.775 150.188,186.442 154.5,180.5C 155.189,179.226 156.023,179.226 157,180.5C 157.722,183.261 157.555,185.927 156.5,188.5 Z"/></g>
<g><path style="opacity:1" fill="#b49961" d="M 142.5,170.5 C 142.775,172.758 143.775,173.092 145.5,171.5C 146.176,172.602 146.842,173.602 147.5,174.5C 146.306,178.363 143.973,181.363 140.5,183.5C 140.5,182.833 140.167,182.5 139.5,182.5C 140.793,180.704 142.293,179.037 144,177.5C 144.781,176.056 144.614,174.723 143.5,173.5C 141.048,176.606 139.048,179.939 137.5,183.5C 136.791,184.404 135.791,184.737 134.5,184.5C 137.607,180.066 140.274,175.399 142.5,170.5 Z"/></g>
<g><path style="opacity:1" fill="#d3beaf" d="M 139.5,182.5 C 138.833,182.833 138.167,183.167 137.5,183.5C 139.048,179.939 141.048,176.606 143.5,173.5C 144.614,174.723 144.781,176.056 144,177.5C 142.293,179.037 140.793,180.704 139.5,182.5 Z"/></g>
<g><path style="opacity:1" fill="#b89b47" d="M 139.5,182.5 C 140.167,182.5 140.5,182.833 140.5,183.5C 139.596,184.209 139.263,185.209 139.5,186.5C 137.62,186.229 136.287,186.896 135.5,188.5C 134.833,188.833 134.167,189.167 133.5,189.5C 132.833,189.5 132.5,189.167 132.5,188.5C 132.66,186.847 133.326,185.514 134.5,184.5C 135.791,184.737 136.791,184.404 137.5,183.5C 138.167,183.167 138.833,182.833 139.5,182.5 Z"/></g>
<g><path style="opacity:1" fill="#c6ad7e" d="M 389.5,178.5 C 389.759,181.272 390.759,183.605 392.5,185.5C 391.449,186.222 390.782,187.222 390.5,188.5C 389.232,186.095 388.565,183.428 388.5,180.5C 386.265,180.795 384.265,180.461 382.5,179.5C 383.167,179.5 383.833,179.5 384.5,179.5C 386.292,179.634 387.958,179.301 389.5,178.5 Z"/></g>
<g><path style="opacity:1" fill="#c1a773" d="M 140.5,183.5 C 140.756,185.792 140.423,187.959 139.5,190C 137.807,190.484 136.473,189.984 135.5,188.5C 136.287,186.896 137.62,186.229 139.5,186.5C 139.263,185.209 139.596,184.209 140.5,183.5 Z"/></g>
<g><path style="opacity:1" fill="#bc5b6f" d="M 317.5,186.5 C 322.342,185.842 325.509,187.842 327,192.5C 327.709,202.244 326.042,211.578 322,220.5C 322.69,214.034 323.523,207.534 324.5,201C 325.034,193.533 321.701,190.2 314.5,191C 311.533,193.1 309.7,195.934 309,199.5C 308.294,197.029 308.627,194.695 310,192.5C 312.114,189.879 314.614,187.879 317.5,186.5 Z"/></g>
<g><path style="opacity:1" fill="#af9245" d="M 148.5,198.5 C 147.833,198.5 147.167,198.5 146.5,198.5C 150.167,195.5 153.5,192.167 156.5,188.5C 158.411,188.426 159.578,187.426 160,185.5C 160.495,183.527 160.662,181.527 160.5,179.5C 161.847,180.171 163.014,180.171 164,179.5C 164.202,177.744 164.702,176.078 165.5,174.5C 166.275,181.303 163.942,186.969 158.5,191.5C 159.325,192.386 160.325,192.719 161.5,192.5C 161.5,193.5 161.5,194.5 161.5,195.5C 159.723,195.214 158.056,194.547 156.5,193.5C 153.84,195.157 151.173,196.824 148.5,198.5 Z"/></g>
<g><path style="opacity:1" fill="#a98c43" d="M 132.5,188.5 C 132.5,189.167 132.833,189.5 133.5,189.5C 128.632,198.963 125.299,208.963 123.5,219.5C 122.835,221.369 122.169,223.369 121.5,225.5C 120.548,223.955 120.215,222.288 120.5,220.5C 122.872,213.186 124.872,205.686 126.5,198C 125.833,196.667 125.167,195.333 124.5,194C 127.06,191.841 127.06,189.674 124.5,187.5C 125.002,186.479 125.668,186.312 126.5,187C 127.787,188.41 128.954,189.91 130,191.5C 130.852,190.429 131.685,189.429 132.5,188.5 Z"/></g>
<g><path style="opacity:1" fill="#b89f73" d="M 152.5,180.5 C 152.938,181.506 153.604,181.506 154.5,180.5C 150.188,186.442 146.355,192.775 143,199.5C 142.333,200.5 142.333,201.5 143,202.5C 144.405,201.269 145.571,199.936 146.5,198.5C 147.167,198.5 147.833,198.5 148.5,198.5C 146.833,200.833 144.833,202.833 142.5,204.5C 141.791,203.596 140.791,203.263 139.5,203.5C 142.608,195.079 146.941,187.412 152.5,180.5 Z"/></g>
<g><path style="opacity:1" fill="#bc5b70" d="M 295.5,194.5 C 297.655,194.372 299.655,194.872 301.5,196C 296.039,195.788 293.872,198.288 295,203.5C 300.628,212.896 308.794,218.73 319.5,221C 309.814,220.576 301.647,216.742 295,209.5C 291.886,206.041 290.886,202.041 292,197.5C 293.145,196.364 294.312,195.364 295.5,194.5 Z"/></g>
<g><path style="opacity:1" fill="#c37282" d="M 340.5,197.5 C 341.805,200.38 340.805,201.88 337.5,202C 339.141,200.871 340.141,199.371 340.5,197.5 Z"/></g>
<g><path style="opacity:1" fill="#cf989e" d="M 330.5,193.5 C 334.838,193.622 335.172,193.955 331.5,194.5C 330.167,197.5 330.167,200.5 331.5,203.5C 332.873,203.343 334.207,203.51 335.5,204C 333.251,204.863 331.418,204.363 330,202.5C 329.264,199.408 329.431,196.408 330.5,193.5 Z"/></g>
<g><path style="opacity:1" fill="#b39547" d="M 139.5,203.5 C 140.791,203.263 141.791,203.596 142.5,204.5C 141.859,205.482 141.193,206.482 140.5,207.5C 141.325,208.386 142.325,208.719 143.5,208.5C 143.5,209.5 143.5,210.5 143.5,211.5C 142.5,211.5 141.5,211.5 140.5,211.5C 138.444,215.6 136.777,219.934 135.5,224.5C 134.833,224.5 134.167,224.5 133.5,224.5C 135.326,217.609 135.826,210.609 135,203.5C 132.812,201.745 132.978,200.911 135.5,201C 136.46,202.419 137.293,203.919 138,205.5C 138.717,204.956 139.217,204.289 139.5,203.5 Z"/></g>
<g><path style="opacity:1" fill="#bb576d" d="M 332.5,208.5 C 334.429,208.231 336.095,208.731 337.5,210C 335.324,210.163 333.491,210.996 332,212.5C 331.667,215.167 331.333,217.833 331,220.5C 329.994,216.198 330.494,212.198 332.5,208.5 Z"/></g>
<g><path style="opacity:1" fill="#af9451" d="M 392.5,185.5 C 393.376,185.369 394.043,185.702 394.5,186.5C 391.399,192.432 390.233,198.765 391,205.5C 391.333,205.167 391.667,204.833 392,204.5C 393.328,193.833 393.995,193.833 394,204.5C 393.027,207.779 391.527,210.779 389.5,213.5C 391.04,214.532 391.54,215.865 391,217.5C 389.185,218.244 387.352,218.911 385.5,219.5C 386.74,214.588 387.573,209.588 388,204.5C 389.985,202.765 389.651,201.432 387,200.5C 386.617,201.056 386.117,201.389 385.5,201.5C 385.872,198.978 385.039,196.978 383,195.5C 381.608,200.481 380.941,200.148 381,194.5C 382.049,193.483 383.216,193.316 384.5,194C 386,195.5 387.5,197 389,198.5C 389.61,195.173 390.11,191.839 390.5,188.5C 390.782,187.222 391.449,186.222 392.5,185.5 Z"/></g>
<g><path style="opacity:1" fill="#b59b64" d="M 356.5,188.5 C 356.833,188.5 357.167,188.5 357.5,188.5C 366.788,204.002 372.288,221.002 374,239.5C 375.093,236.691 376.26,234.024 377.5,231.5C 377.833,231.5 378.167,231.5 378.5,231.5C 376.238,238.022 374.571,244.689 373.5,251.5C 372.833,251.5 372.167,251.5 371.5,251.5C 372.44,240.186 371.107,229.186 367.5,218.5C 366.167,219.833 364.833,221.167 363.5,222.5C 362.044,220.484 360.711,218.484 359.5,216.5C 360.987,211.343 361.653,211.676 361.5,217.5C 362.833,217.5 364.167,217.5 365.5,217.5C 364.516,207.201 361.516,197.534 356.5,188.5 Z"/></g>
<g><path style="opacity:1" fill="#b1923a" d="M 385.5,219.5 C 384.628,222.421 384.628,225.421 385.5,228.5C 385.768,230.099 385.434,231.432 384.5,232.5C 383.654,223.607 381.654,223.273 378.5,231.5C 378.167,231.5 377.833,231.5 377.5,231.5C 378.668,226.985 380.001,222.485 381.5,218C 380.855,213.576 379.521,209.41 377.5,205.5C 377.5,204.167 378.167,203.5 379.5,203.5C 381.566,207.202 382.733,211.202 383,215.5C 384.044,214.377 384.71,213.044 385,211.5C 385.498,208.183 385.665,204.85 385.5,201.5C 386.117,201.389 386.617,201.056 387,200.5C 389.651,201.432 389.985,202.765 388,204.5C 387.573,209.588 386.74,214.588 385.5,219.5 Z"/></g>
<g><path style="opacity:1" fill="#bc5b70" d="M 343.5,214.5 C 348,212.837 349.5,214.503 348,219.5C 346.164,222.379 343.664,223.879 340.5,224C 343.695,222.305 346.028,219.805 347.5,216.5C 346.68,214.889 345.346,214.222 343.5,214.5 Z"/></g>
<g><path style="opacity:1" fill="#ae945d" d="M 123.5,219.5 C 123.527,221.199 124.194,222.533 125.5,223.5C 123.744,224.552 123.077,226.219 123.5,228.5C 120.075,228.367 119.742,229.033 122.5,230.5C 121.508,230.328 120.842,230.662 120.5,231.5C 120.167,231.5 119.833,231.5 119.5,231.5C 119.741,229.114 119.075,227.114 117.5,225.5C 118.167,225.5 118.5,225.167 118.5,224.5C 119.167,223.167 119.833,221.833 120.5,220.5C 120.215,222.288 120.548,223.955 121.5,225.5C 122.169,223.369 122.835,221.369 123.5,219.5 Z"/></g>
<g><path style="opacity:1" fill="#f6f1f0" d="M 253.5,224.5 C 254.814,226.915 255.481,229.748 255.5,233C 255.167,235.833 254.833,238.667 254.5,241.5C 253.505,235.872 253.171,230.206 253.5,224.5 Z"/></g>
<g><path style="opacity:1" fill="#d5c0b1" d="M 117.5,225.5 C 119.075,227.114 119.741,229.114 119.5,231.5C 118.837,233.042 118.17,234.709 117.5,236.5C 115.046,233.253 113.379,229.587 112.5,225.5C 114.167,225.5 115.833,225.5 117.5,225.5 Z"/></g>
<g><path style="opacity:1" fill="#faf7f6" d="M 281.5,225.5 C 282.251,224.427 283.251,224.26 284.5,225C 288.277,227.955 289.443,231.788 288,236.5C 287.667,234.5 287.333,232.5 287,230.5C 285.924,227.921 284.091,226.254 281.5,225.5 Z"/></g>
<g><path style="opacity:1" fill="#f7f2f1" d="M 214.5,224.5 C 216.28,228.727 217.114,233.394 217,238.5C 218.338,239.224 218.505,239.89 217.5,240.5C 216.201,239.91 215.368,238.91 215,237.5C 214.501,233.179 214.334,228.846 214.5,224.5 Z"/></g>
<g><path style="opacity:1" fill="#f1e9e8" d="M 293.5,224.5 C 295.178,229.655 296.178,235.155 296.5,241C 295.552,241.483 294.552,241.649 293.5,241.5C 293.5,235.833 293.5,230.167 293.5,224.5 Z"/></g>
<g><path style="opacity:1" fill="#bf6577" d="M 312.5,227.5 C 314.401,230.466 315.568,233.799 316,237.5C 312.753,234.716 311.587,231.383 312.5,227.5 Z"/></g>
<g><path style="opacity:1" fill="#be6174" d="M 323.5,227.5 C 324.884,226.199 326.384,226.199 328,227.5C 328.996,231.207 328.33,234.541 326,237.5C 326.138,235.51 326.638,233.51 327.5,231.5C 327.152,229.152 325.818,227.818 323.5,227.5 Z"/></g>
<g><path style="opacity:1" fill="#d9c5bd" d="M 384.5,232.5 C 384.666,239.508 384.5,246.508 384,253.5C 379.369,257.441 375.702,262.107 373,267.5C 372.517,266.552 372.351,265.552 372.5,264.5C 372.927,260.176 373.261,255.842 373.5,251.5C 374.571,244.689 376.238,238.022 378.5,231.5C 381.654,223.273 383.654,223.607 384.5,232.5 Z"/></g>
<g><path style="opacity:1" fill="#f6f0ef" d="M 175.5,226.5 C 176.713,227.497 176.546,228.497 175,229.5C 173.74,234.814 175.574,238.647 180.5,241C 176.404,241.522 173.904,239.688 173,235.5C 172.131,232.007 172.964,229.007 175.5,226.5 Z"/></g>
<g><path style="opacity:1" fill="#fbf8f8" d="M 202.5,225.5 C 203.251,224.427 204.251,224.26 205.5,225C 209.327,228.308 210.494,232.474 209,237.5C 209.651,231.791 207.484,227.791 202.5,225.5 Z"/></g>
<g><path style="opacity:1" fill="#ab8e3b" d="M 118.5,224.5 C 118.5,225.167 118.167,225.5 117.5,225.5C 115.833,225.5 114.167,225.5 112.5,225.5C 113.379,229.587 115.046,233.253 117.5,236.5C 118.17,234.709 118.837,233.042 119.5,231.5C 119.833,231.5 120.167,231.5 120.5,231.5C 120.5,240.5 120.5,249.5 120.5,258.5C 119.596,259.209 119.263,260.209 119.5,261.5C 118.209,261.263 117.209,261.596 116.5,262.5C 115.833,262.5 115.5,262.833 115.5,263.5C 115.167,263.5 114.833,263.5 114.5,263.5C 112.138,261.133 110.138,258.467 108.5,255.5C 109.864,250.653 112.864,249.32 117.5,251.5C 117.5,247.5 117.5,243.5 117.5,239.5C 115.708,239.366 114.042,239.699 112.5,240.5C 113.007,239.141 114.007,238.141 115.5,237.5C 115.167,236.833 114.833,236.167 114.5,235.5C 111.124,234.924 107.791,233.591 104.5,231.5C 105.736,229.957 107.402,228.957 109.5,228.5C 111.705,226.251 111.705,224.251 109.5,222.5C 108.548,220.955 108.215,219.288 108.5,217.5C 109.5,217.5 110.5,217.5 111.5,217.5C 111.5,218.833 111.5,220.167 111.5,221.5C 113.527,221.338 115.527,221.505 117.5,222C 118.252,222.671 118.586,223.504 118.5,224.5 Z"/></g>
<g><path style="opacity:1" fill="#f1e9e7" d="M 233.5,224.5 C 235.344,226.279 236.01,228.612 235.5,231.5C 241.555,232.058 242.888,229.891 239.5,225C 241.826,224.815 243.16,225.982 243.5,228.5C 243.124,230.383 242.124,231.883 240.5,233C 242.353,235.571 244.019,238.238 245.5,241C 244.833,241.667 244.167,241.667 243.5,241C 238.475,230.215 235.808,230.382 235.5,241.5C 234.448,241.649 233.448,241.483 232.5,241C 233.473,235.593 233.807,230.093 233.5,224.5 Z"/></g>
<g><path style="opacity:1" fill="#b2933e" d="M 125.5,223.5 C 126.421,230.364 128.255,237.031 131,243.5C 131.494,241.866 131.66,240.199 131.5,238.5C 132.167,244.5 132.833,250.5 133.5,256.5C 133.833,257.167 134.167,257.833 134.5,258.5C 133.258,260.611 133.258,262.611 134.5,264.5C 134.5,265.833 134.5,267.167 134.5,268.5C 134.167,268.5 133.833,268.5 133.5,268.5C 132.484,264.568 131.15,260.734 129.5,257C 130.097,255.938 130.43,254.772 130.5,253.5C 129.83,250.154 129.163,246.821 128.5,243.5C 126.833,243.5 125.167,243.5 123.5,243.5C 123.5,242.167 123.5,240.833 123.5,239.5C 124.5,239.5 125.5,239.5 126.5,239.5C 125.426,236.355 124.093,233.355 122.5,230.5C 119.742,229.033 120.075,228.367 123.5,228.5C 123.077,226.219 123.744,224.552 125.5,223.5 Z"/></g>
<g><path style="opacity:1" fill="#dac6bf" d="M 122.5,230.5 C 124.093,233.355 125.426,236.355 126.5,239.5C 125.5,239.5 124.5,239.5 123.5,239.5C 123.5,240.833 123.5,242.167 123.5,243.5C 125.167,243.5 126.833,243.5 128.5,243.5C 129.163,246.821 129.83,250.154 130.5,253.5C 130.43,254.772 130.097,255.938 129.5,257C 131.15,260.734 132.484,264.568 133.5,268.5C 134.827,280.142 138.16,291.142 143.5,301.5C 141.955,302.452 140.288,302.785 138.5,302.5C 138.32,306.656 140.32,308.99 144.5,309.5C 151.146,316.15 157.479,323.15 163.5,330.5C 167.539,335.54 172.206,339.873 177.5,343.5C 186.508,350.825 196.508,356.491 207.5,360.5C 209.714,361.874 212.047,363.041 214.5,364C 221.893,365.348 229.227,367.015 236.5,369C 245.167,369.667 253.833,369.667 262.5,369C 264.058,368.79 265.391,368.29 266.5,367.5C 279.986,367.226 292.652,363.893 304.5,357.5C 310.696,354.908 316.363,351.575 321.5,347.5C 327.728,343.45 333.562,338.784 339,333.5C 345.922,326.582 352.089,319.082 357.5,311C 360.87,308.922 364.537,308.089 368.5,308.5C 368.5,307.5 368.5,306.5 368.5,305.5C 369.675,305.281 370.675,305.614 371.5,306.5C 370.167,309.493 368.167,311.827 365.5,313.5C 364.167,314.167 363.167,315.167 362.5,316.5C 361.686,318.631 361.186,320.964 361,323.5C 343.238,349.083 319.405,366.416 289.5,375.5C 282.331,376.623 275.331,377.957 268.5,379.5C 260.252,380.469 251.918,380.802 243.5,380.5C 233.946,379.855 224.613,378.188 215.5,375.5C 214.833,375.167 214.167,374.833 213.5,374.5C 211.485,373.076 209.152,372.41 206.5,372.5C 200.047,370.107 193.714,367.44 187.5,364.5C 179.91,359.585 172.577,354.252 165.5,348.5C 160.833,344.5 156.5,340.167 152.5,335.5C 150.001,332.831 147.668,329.998 145.5,327C 147.367,326.289 148.867,326.789 150,328.5C 150.667,327.833 150.667,327.167 150,326.5C 147.903,325.009 145.57,324.009 143,323.5C 138.342,315.641 134.175,307.641 130.5,299.5C 125.642,291.623 125.309,283.623 129.5,275.5C 129.665,272.482 129.498,269.482 129,266.5C 127.847,264.503 126.347,264.17 124.5,265.5C 125.325,266.386 126.325,266.719 127.5,266.5C 127.5,267.833 127.5,269.167 127.5,270.5C 126.363,274.417 125.53,278.417 125,282.5C 123.06,279.072 121.894,275.406 121.5,271.5C 120.564,267.265 120.231,262.931 120.5,258.5C 120.5,249.5 120.5,240.5 120.5,231.5C 120.842,230.662 121.508,230.328 122.5,230.5 Z"/></g>
<g><path style="opacity:1" fill="#f6f0ef" d="M 273.5,226.5 C 273.571,229.597 273.738,232.93 274,236.5C 275.109,238.815 276.943,240.315 279.5,241C 272.708,240.296 270.208,236.463 272,229.5C 272.513,228.473 273.013,227.473 273.5,226.5 Z"/></g>
<g><path style="opacity:1" fill="#f5efee" d="M 194.5,226.5 C 194.604,229.265 194.771,232.265 195,235.5C 196.167,238 198,239.833 200.5,241C 196.404,241.522 193.904,239.688 193,235.5C 192.207,232.259 192.707,229.259 194.5,226.5 Z"/></g>
<g><path style="opacity:1" fill="#a98929" d="M 104.5,231.5 C 107.791,233.591 111.124,234.924 114.5,235.5C 114.833,236.167 115.167,236.833 115.5,237.5C 114.007,238.141 113.007,239.141 112.5,240.5C 112.586,241.496 112.252,242.329 111.5,243C 109.098,243.814 106.765,243.647 104.5,242.5C 103.502,240.335 102.502,238.168 101.5,236C 101.522,233.817 102.522,232.317 104.5,231.5 Z"/></g>
<g><path style="opacity:1" fill="#dac5bc" d="M 389.5,237.5 C 390.461,239.265 390.795,241.265 390.5,243.5C 389.68,245.14 388.847,246.807 388,248.5C 387.333,244.5 387.333,240.5 388,236.5C 388.383,237.056 388.883,237.389 389.5,237.5 Z"/></g>
<g><path style="opacity:1" fill="#ba9d4f" d="M 389.5,237.5 C 389.842,236.662 390.508,236.328 391.5,236.5C 392.219,238.764 392.552,241.097 392.5,243.5C 391.833,243.5 391.167,243.5 390.5,243.5C 390.795,241.265 390.461,239.265 389.5,237.5 Z"/></g>
<g><path style="opacity:1" fill="#9e908d" d="M 230.5,254.5 C 232.666,252.163 234.666,249.663 236.5,247C 233.764,246.578 231.098,246.578 228.5,247C 231.672,244.015 234.672,244.015 237.5,247C 236.334,250.664 234.001,253.164 230.5,254.5 Z"/></g>
<g><path style="opacity:1" fill="#bba27a" d="M 386.5,231.5 C 387.434,232.568 387.768,233.901 387.5,235.5C 389.099,235.232 390.432,235.566 391.5,236.5C 390.508,236.328 389.842,236.662 389.5,237.5C 388.883,237.389 388.383,237.056 388,236.5C 387.333,240.5 387.333,244.5 388,248.5C 388.847,246.807 389.68,245.14 390.5,243.5C 391.167,243.5 391.833,243.5 392.5,243.5C 390.233,245.787 390.233,247.954 392.5,250C 392.43,250.765 392.097,251.265 391.5,251.5C 390.687,250.347 389.687,250.347 388.5,251.5C 387.808,250.975 387.308,250.308 387,249.5C 386.501,243.509 386.334,237.509 386.5,231.5 Z"/></g>
<g><path style="opacity:1" fill="#c1a774" d="M 133.5,224.5 C 134.167,224.5 134.833,224.5 135.5,224.5C 133.633,232.03 133.133,239.696 134,247.5C 135.085,244.183 136.585,243.849 138.5,246.5C 136.253,248.914 135.92,251.58 137.5,254.5C 136.833,255.833 136.167,255.833 135.5,254.5C 133.841,249.735 133.174,250.402 133.5,256.5C 132.833,250.5 132.167,244.5 131.5,238.5C 131.846,233.784 132.513,229.117 133.5,224.5 Z"/></g>
<g><path style="opacity:1" fill="#b59a5e" d="M 371.5,253.5 C 371.007,255.806 370.674,258.139 370.5,260.5C 369.876,258.166 369.043,255.833 368,253.5C 367.781,254.938 367.281,256.271 366.5,257.5C 365.914,257.291 365.414,256.957 365,256.5C 364.666,254.153 364.833,251.819 365.5,249.5C 366.552,249.351 367.552,249.517 368.5,250C 369.163,251.518 370.163,252.685 371.5,253.5 Z"/></g>
<g><path style="opacity:1" fill="#7a706e" d="M 230.5,254.5 C 230.027,255.906 229.027,256.573 227.5,256.5C 227.973,255.094 228.973,254.427 230.5,254.5 Z"/></g>
<g><path style="opacity:1" fill="#544e4d" d="M 267.5,258.5 C 265.412,260.336 264.079,262.669 263.5,265.5C 262.356,267.1 261.189,268.767 260,270.5C 262.136,262.576 266.136,255.576 272,249.5C 270.562,252.377 269.062,255.377 267.5,258.5 Z"/></g>
<g><path style="opacity:1" fill="#6f6564" d="M 227.5,256.5 C 228.609,257.29 229.942,257.79 231.5,258C 232.081,258.893 232.415,259.893 232.5,261C 232.456,263.801 231.456,265.968 229.5,267.5C 229.5,267.167 229.5,266.833 229.5,266.5C 230.388,263.946 230.721,261.279 230.5,258.5C 228.473,258.662 226.473,258.495 224.5,258C 225.244,256.961 226.244,256.461 227.5,256.5 Z"/></g>
<g><path style="opacity:1" fill="#564f4e" d="M 286.5,248.5 C 287.239,248.369 287.906,248.536 288.5,249C 281.756,255.654 276.923,263.487 274,272.5C 273.429,268.955 274.096,265.622 276,262.5C 279.266,257.625 282.766,252.958 286.5,248.5 Z"/></g>
<g><path style="opacity:1" fill="#69615f" d="M 319.5,257.5 C 320.552,257.351 321.552,257.517 322.5,258C 319.898,258.935 318.398,260.768 318,263.5C 317.252,261.16 317.752,259.16 319.5,257.5 Z"/></g>
<g><path style="opacity:1" fill="#dac6be" d="M 384.5,261.5 C 382.344,271.347 380.344,281.347 378.5,291.5C 375.763,294.983 374.097,298.983 373.5,303.5C 370.813,303.336 368.146,303.503 365.5,304C 363.301,305.697 360.968,307.197 358.5,308.5C 357.893,308.376 357.56,308.043 357.5,307.5C 360.144,304.227 362.311,300.56 364,296.5C 366.29,290.346 368.124,284.012 369.5,277.5C 371.245,275.967 372.245,273.967 372.5,271.5C 375.412,266.035 379.079,261.035 383.5,256.5C 384.452,258.045 384.785,259.712 384.5,261.5 Z"/></g>
<g><path style="opacity:1" fill="#b0a09d" d="M 268.5,263.5 C 267.391,263.557 266.391,263.89 265.5,264.5C 264.833,264.833 264.167,265.167 263.5,265.5C 264.079,262.669 265.412,260.336 267.5,258.5C 269.797,256.706 271.963,254.706 274,252.5C 273.454,255.093 271.954,257.26 269.5,259C 272.183,261.122 271.85,262.622 268.5,263.5 Z"/></g>
<g><path style="opacity:1" fill="#c5b3b0" d="M 291.5,262.5 C 289.204,262.804 288.871,263.804 290.5,265.5C 289.473,268.858 287.14,270.525 283.5,270.5C 283.633,265.728 282.3,265.562 279.5,270C 278.833,270.667 278.167,270.667 277.5,270C 279.441,267.546 281.775,265.713 284.5,264.5C 284.369,265.239 284.536,265.906 285,266.5C 286.666,264.004 288.5,261.671 290.5,259.5C 291.302,258.115 291.969,258.282 292.5,260C 292.257,260.902 291.923,261.735 291.5,262.5 Z"/></g>
<g><path style="opacity:1" fill="#5d5554" d="M 300.5,261.5 C 298.19,264.102 296.357,267.102 295,270.5C 294.531,266.057 296.031,262.39 299.5,259.5C 300.298,259.957 300.631,260.624 300.5,261.5 Z"/></g>
<g><path style="opacity:1" fill="#635b5a" d="M 308.5,265.5 C 308.5,264.833 308.5,264.167 308.5,263.5C 309.999,260.468 312.332,258.968 315.5,259C 312.642,260.694 310.309,262.861 308.5,265.5 Z"/></g>
<g><path style="opacity:1" fill="#564f4f" d="M 221.5,246.5 C 222.147,247.274 222.48,248.274 222.5,249.5C 219.34,259.31 214.007,267.81 206.5,275C 205.833,275.667 205.167,275.667 204.5,275C 213.137,267.22 218.803,257.72 221.5,246.5 Z"/></g>
<g><path style="opacity:1" fill="#5e5655" d="M 243.5,260.5 C 241.856,263.004 240.356,265.671 239,268.5C 238.658,264.855 240.158,262.189 243.5,260.5 Z"/></g>
<g><path style="opacity:1" fill="#615958" d="M 250.5,266.5 C 250.5,265.5 250.5,264.5 250.5,263.5C 251.962,262.542 253.295,261.376 254.5,260C 255.167,259.333 255.833,259.333 256.5,260C 254.266,262.063 252.266,264.229 250.5,266.5 Z"/></g>
<g><path style="opacity:1" fill="#8f8280" d="M 255.5,262.5 C 257.084,263.382 258.751,264.215 260.5,265C 257.738,266.077 256.072,265.244 255.5,262.5 Z"/></g>
<g><path style="opacity:1" fill="#605857" d="M 290.5,259.5 C 288.5,261.671 286.666,264.004 285,266.5C 284.536,265.906 284.369,265.239 284.5,264.5C 285.911,262.086 287.911,260.419 290.5,259.5 Z"/></g>
<g><path style="opacity:1" fill="#8f8280" d="M 291.5,262.5 C 291.881,263.931 292.881,264.764 294.5,265C 293.207,265.49 291.873,265.657 290.5,265.5C 288.871,263.804 289.204,262.804 291.5,262.5 Z"/></g>
<g><path style="opacity:1" fill="#9f918e" d="M 250.5,263.5 C 250.5,264.5 250.5,265.5 250.5,266.5C 250.36,268.124 251.027,269.29 252.5,270C 251.552,270.483 250.552,270.649 249.5,270.5C 249.5,268.833 249.5,267.167 249.5,265.5C 247.856,265.286 246.356,265.62 245,266.5C 244.349,264.765 244.515,263.098 245.5,261.5C 245.043,260.702 244.376,260.369 243.5,260.5C 244.543,258.148 245.876,257.981 247.5,260C 246.62,261.356 246.286,262.856 246.5,264.5C 247.959,264.567 249.292,264.234 250.5,263.5 Z"/></g>
<g><path style="opacity:1" fill="#a79795" d="M 308.5,263.5 C 308.5,264.167 308.5,264.833 308.5,265.5C 308.36,267.124 309.027,268.29 310.5,269C 309.552,269.483 308.552,269.649 307.5,269.5C 307.762,268.022 307.429,266.689 306.5,265.5C 304.618,266.093 302.785,266.76 301,267.5C 300.505,265.527 300.338,263.527 300.5,261.5C 301.363,260.537 302.03,260.537 302.5,261.5C 301.177,266.088 301.677,266.422 304,262.5C 305.084,264.782 306.584,265.116 308.5,263.5 Z"/></g>
<g><path style="opacity:1" fill="#d3bdaf" d="M 116.5,262.5 C 117.649,262.791 118.316,263.624 118.5,265C 119.332,267.478 119.499,269.978 119,272.5C 116.713,269.928 115.547,266.928 115.5,263.5C 115.5,262.833 115.833,262.5 116.5,262.5 Z"/></g>
<g><path style="opacity:1" fill="#ac9466" d="M 129.5,275.5 C 128.833,273.833 128.167,272.167 127.5,270.5C 127.5,269.167 127.5,267.833 127.5,266.5C 126.325,266.719 125.325,266.386 124.5,265.5C 126.347,264.17 127.847,264.503 129,266.5C 129.498,269.482 129.665,272.482 129.5,275.5 Z"/></g>
<g><path style="opacity:1" fill="#bfa679" d="M 134.5,258.5 C 136.497,261.16 137.997,264.16 139,267.5C 140.167,265.667 141.333,263.833 142.5,262C 143.635,261.251 144.635,261.417 145.5,262.5C 141.809,266.221 139.476,270.554 138.5,275.5C 138.657,274.127 138.49,272.793 138,271.5C 137.617,272.056 137.117,272.389 136.5,272.5C 136.905,268.952 136.405,265.619 135,262.5C 134.536,263.094 134.369,263.761 134.5,264.5C 133.258,262.611 133.258,260.611 134.5,258.5 Z"/></g>
<g><path style="opacity:1" fill="#b3a3a0" d="M 202.5,266.5 C 203.172,265.733 204.005,265.066 205,264.5C 205.226,261.905 205.726,259.405 206.5,257C 204.833,256.667 203.167,256.333 201.5,256C 204.615,255.97 207.115,254.803 209,252.5C 208.732,255.896 209.065,259.23 210,262.5C 208.154,265.007 205.654,266.341 202.5,266.5 Z"/></g>
<g><path style="opacity:1" fill="#766c6a" d="M 268.5,263.5 C 268.061,266.445 266.895,269.445 265,272.5C 264.308,271.975 263.808,271.308 263.5,270.5C 264.5,269.167 265.5,267.833 266.5,266.5C 266.137,265.817 265.804,265.15 265.5,264.5C 266.391,263.89 267.391,263.557 268.5,263.5 Z"/></g>
<g><path style="opacity:1" fill="#b3995e" d="M 385.5,228.5 C 386.404,229.209 386.737,230.209 386.5,231.5C 386.334,237.509 386.501,243.509 387,249.5C 387.308,250.308 387.808,250.975 388.5,251.5C 389.687,250.347 390.687,250.347 391.5,251.5C 390.378,252.947 388.878,253.947 387,254.5C 386.826,259.351 386.326,264.018 385.5,268.5C 385.802,265.941 385.468,263.607 384.5,261.5C 384.785,259.712 384.452,258.045 383.5,256.5C 379.079,261.035 375.412,266.035 372.5,271.5C 371.244,269.059 371.244,266.726 372.5,264.5C 372.351,265.552 372.517,266.552 373,267.5C 375.702,262.107 379.369,257.441 384,253.5C 384.5,246.508 384.666,239.508 384.5,232.5C 385.434,231.432 385.768,230.099 385.5,228.5 Z"/></g>
<g><path style="opacity:1" fill="#d3bda8" d="M 136.5,272.5 C 135.032,272.306 134.365,270.972 134.5,268.5C 134.5,267.167 134.5,265.833 134.5,264.5C 134.369,263.761 134.536,263.094 135,262.5C 136.405,265.619 136.905,268.952 136.5,272.5 Z"/></g>
<g><path style="opacity:1" fill="#4d4746" d="M 318.5,264.5 C 319.043,264.56 319.376,264.893 319.5,265.5C 318.081,267.336 316.914,269.336 316,271.5C 315.683,268.793 316.516,266.46 318.5,264.5 Z"/></g>
<g><path style="opacity:1" fill="#ab9c99" d="M 202.5,266.5 C 201.542,267.962 200.376,269.295 199,270.5C 198.761,272.761 198.594,274.761 198.5,276.5C 196.319,271.595 197.653,268.262 202.5,266.5 Z"/></g>
<g><path style="opacity:1" fill="#9c8e8b" d="M 229.5,266.5 C 229.5,266.833 229.5,267.167 229.5,267.5C 229.262,269.404 228.262,270.738 226.5,271.5C 226.414,270.504 226.748,269.671 227.5,269C 224.808,268.57 222.141,268.737 219.5,269.5C 222.495,267.757 225.829,266.757 229.5,266.5 Z"/></g>
<g><path style="opacity:1" fill="#706765" d="M 329.5,259.5 C 330.161,261.134 330.494,262.967 330.5,265C 330.596,267.375 330.096,269.541 329,271.5C 328.238,267.413 328.404,263.413 329.5,259.5 Z"/></g>
<g><path style="opacity:1" fill="#c5b4b0" d="M 226.5,271.5 C 224.576,274.566 221.743,276.566 218,277.5C 214.251,276.541 213.585,274.541 216,271.5C 216.816,270.177 217.983,269.511 219.5,269.5C 222.141,268.737 224.808,268.57 227.5,269C 226.748,269.671 226.414,270.504 226.5,271.5 Z"/></g>
<g><path style="opacity:1" fill="#c1a982" d="M 364.5,276.5 C 363.833,274.5 363.167,272.5 362.5,270.5C 362.628,268.91 363.295,267.577 364.5,266.5C 364.833,267 365.167,267.5 365.5,268C 364.652,270.77 364.319,273.603 364.5,276.5 Z"/></g>
<g><path style="opacity:1" fill="#b29341" d="M 371.5,251.5 C 372.167,251.5 372.833,251.5 373.5,251.5C 373.261,255.842 372.927,260.176 372.5,264.5C 371.244,266.726 371.244,269.059 372.5,271.5C 372.245,273.967 371.245,275.967 369.5,277.5C 369.5,276.833 369.5,276.167 369.5,275.5C 370.053,270.518 370.387,265.518 370.5,260.5C 370.674,258.139 371.007,255.806 371.5,253.5C 371.5,252.833 371.5,252.167 371.5,251.5 Z"/></g>
<g><path style="opacity:1" fill="#b99f6c" d="M 120.5,258.5 C 120.231,262.931 120.564,267.265 121.5,271.5C 120.475,272.374 119.808,273.541 119.5,275C 120.654,277.437 121.154,279.937 121,282.5C 120.329,281.748 119.496,281.414 118.5,281.5C 117.518,277.868 115.351,275.201 112,273.5C 111.505,271.527 111.338,269.527 111.5,267.5C 112.5,267.5 113.5,267.5 114.5,267.5C 114.5,266.167 114.5,264.833 114.5,263.5C 114.833,263.5 115.167,263.5 115.5,263.5C 115.547,266.928 116.713,269.928 119,272.5C 119.499,269.978 119.332,267.478 118.5,265C 118.316,263.624 117.649,262.791 116.5,262.5C 117.209,261.596 118.209,261.263 119.5,261.5C 119.263,260.209 119.596,259.209 120.5,258.5 Z"/></g>
<g><path style="opacity:1" fill="#bc9f5a" d="M 362.5,270.5 C 363.167,272.5 363.833,274.5 364.5,276.5C 365.141,277.482 365.807,278.482 366.5,279.5C 364.282,280.188 362.782,279.188 362,276.5C 361.211,274.288 361.378,272.288 362.5,270.5 Z"/></g>
<g><path style="opacity:1" fill="#a58627" d="M 157.5,274.5 C 158.091,277.675 157.091,280.009 154.5,281.5C 152.142,281.747 150.142,281.081 148.5,279.5C 147.185,278.333 146.519,276.833 146.5,275C 148.245,269.061 151.579,268.061 156.5,272C 157.252,272.671 157.586,273.504 157.5,274.5 Z"/></g>
<g><path style="opacity:1" fill="#b09452" d="M 133.5,268.5 C 133.833,268.5 134.167,268.5 134.5,268.5C 134.365,270.972 135.032,272.306 136.5,272.5C 137.117,272.389 137.617,272.056 138,271.5C 138.49,272.793 138.657,274.127 138.5,275.5C 139.96,285.541 142.627,295.208 146.5,304.5C 144.833,304.5 143.167,304.5 141.5,304.5C 141.5,305.5 141.5,306.5 141.5,307.5C 143.179,307.285 144.179,307.952 144.5,309.5C 140.32,308.99 138.32,306.656 138.5,302.5C 140.288,302.785 141.955,302.452 143.5,301.5C 138.16,291.142 134.827,280.142 133.5,268.5 Z"/></g>
<g><path style="opacity:1" fill="#d0b890" d="M 157.5,274.5 C 158.622,276.288 158.789,278.288 158,280.5C 156.989,281.337 155.822,281.67 154.5,281.5C 157.091,280.009 158.091,277.675 157.5,274.5 Z"/></g>
<g><path style="opacity:1" fill="#b39647" d="M 127.5,270.5 C 128.167,272.167 128.833,273.833 129.5,275.5C 125.309,283.623 125.642,291.623 130.5,299.5C 130.737,300.791 130.404,301.791 129.5,302.5C 126.799,298.241 124.966,293.574 124,288.5C 121.675,286.499 119.842,284.166 118.5,281.5C 119.496,281.414 120.329,281.748 121,282.5C 121.154,279.937 120.654,277.437 119.5,275C 119.808,273.541 120.475,272.374 121.5,271.5C 121.894,275.406 123.06,279.072 125,282.5C 125.53,278.417 126.363,274.417 127.5,270.5 Z"/></g>
<g><path style="opacity:1" fill="#b29441" d="M 378.5,294.5 C 378.5,293.5 378.5,292.5 378.5,291.5C 380.344,281.347 382.344,271.347 384.5,261.5C 385.468,263.607 385.802,265.941 385.5,268.5C 383.857,273.396 383.023,278.396 383,283.5C 386.821,278.879 388.987,273.546 389.5,267.5C 390.478,267.977 391.311,268.643 392,269.5C 393.366,266.436 393.866,263.436 393.5,260.5C 394.321,263.447 394.821,266.447 395,269.5C 396.156,268.007 396.99,268.174 397.5,270C 396.454,273.051 394.621,275.551 392,277.5C 391.517,278.448 391.351,279.448 391.5,280.5C 389.097,280.393 387.264,281.393 386,283.5C 382.825,286.818 380.325,290.485 378.5,294.5 Z"/></g>
<g><path style="opacity:1" fill="#b79c5f" d="M 369.5,275.5 C 369.5,276.167 369.5,276.833 369.5,277.5C 368.124,284.012 366.29,290.346 364,296.5C 362.311,300.56 360.144,304.227 357.5,307.5C 356.89,306.609 356.557,305.609 356.5,304.5C 361.419,298.439 363.253,291.439 362,283.5C 359.812,281.745 359.978,280.911 362.5,281C 363.618,282.074 364.618,283.24 365.5,284.5C 366.833,281.427 368.166,278.427 369.5,275.5 Z"/></g>
<g><path style="opacity:1" fill="#c0a46b" d="M 155.5,287.5 C 156.552,287.351 157.552,287.517 158.5,288C 154.592,289.973 152.259,293.14 151.5,297.5C 150.386,296.277 150.219,294.944 151,293.5C 152.332,291.34 153.832,289.34 155.5,287.5 Z"/></g>
<g><path style="opacity:1" fill="#ad9254" d="M 148.5,279.5 C 150.142,281.081 152.142,281.747 154.5,281.5C 152.696,282.381 151.196,283.714 150,285.5C 149.333,290.5 149.333,295.5 150,300.5C 150.24,302.852 151.073,304.852 152.5,306.5C 152.5,307.833 152.5,309.167 152.5,310.5C 149.745,310.037 148.078,308.37 147.5,305.5C 147.544,299.369 147.71,293.036 148,286.5C 149.518,284.187 149.684,281.854 148.5,279.5 Z"/></g>
<g><path style="opacity:1" fill="#a18332" d="M 165.5,328.5 C 165.5,329.833 164.833,330.5 163.5,330.5C 157.479,323.15 151.146,316.15 144.5,309.5C 144.179,307.952 143.179,307.285 141.5,307.5C 141.5,306.5 141.5,305.5 141.5,304.5C 143.167,304.5 144.833,304.5 146.5,304.5C 147.167,304.5 147.5,304.833 147.5,305.5C 148.078,308.37 149.745,310.037 152.5,310.5C 152.5,309.167 152.5,307.833 152.5,306.5C 152.5,304.833 152.5,303.167 152.5,301.5C 153.833,301.5 155.167,301.5 156.5,301.5C 156.065,308.33 156.731,314.996 158.5,321.5C 162.371,322.207 164.705,324.54 165.5,328.5 Z"/></g>
<g><path style="opacity:1" fill="#a98a31" d="M 370.5,312.5 C 372.027,312.427 373.027,313.094 373.5,314.5C 373.557,315.609 373.89,316.609 374.5,317.5C 373.974,323.385 370.974,325.719 365.5,324.5C 364.791,323.596 363.791,323.263 362.5,323.5C 362.5,321.167 362.5,318.833 362.5,316.5C 363.167,315.167 364.167,314.167 365.5,313.5C 367.117,312.962 368.784,312.629 370.5,312.5 Z"/></g>
<g><path style="opacity:1" fill="#c8b198" d="M 340.5,311.5 C 340.504,315.027 340.837,318.527 341.5,322C 341.392,323.681 340.725,324.848 339.5,325.5C 339.181,320.637 339.514,315.97 340.5,311.5 Z"/></g>
<g><path style="opacity:1" fill="#b79c5f" d="M 130.5,299.5 C 134.175,307.641 138.342,315.641 143,323.5C 145.57,324.009 147.903,325.009 150,326.5C 150.667,327.167 150.667,327.833 150,328.5C 148.867,326.789 147.367,326.289 145.5,327C 147.668,329.998 150.001,332.831 152.5,335.5C 152.586,336.496 152.252,337.329 151.5,338C 152.416,338.278 153.082,338.778 153.5,339.5C 150.206,339.741 147.206,338.908 144.5,337C 141.5,333 138.5,329 135.5,325C 134.258,324.689 133.258,325.189 132.5,326.5C 131.571,325.311 131.238,323.978 131.5,322.5C 135.67,321.993 138.67,323.659 140.5,327.5C 140.833,326.833 141.167,326.167 141.5,325.5C 137.235,317.969 133.235,310.303 129.5,302.5C 130.404,301.791 130.737,300.791 130.5,299.5 Z"/></g>
<g><path style="opacity:1" fill="#b1944e" d="M 378.5,291.5 C 378.5,292.5 378.5,293.5 378.5,294.5C 377.651,297.035 376.651,299.535 375.5,302C 377.606,304.43 379.273,307.096 380.5,310C 380.121,313.872 378.121,316.372 374.5,317.5C 373.89,316.609 373.557,315.609 373.5,314.5C 377.903,315.233 379.403,313.233 378,308.5C 376.757,306.167 375.091,305.5 373,306.5C 371.878,308.407 371.045,310.407 370.5,312.5C 368.784,312.629 367.117,312.962 365.5,313.5C 368.167,311.827 370.167,309.493 371.5,306.5C 370.675,305.614 369.675,305.281 368.5,305.5C 368.5,306.5 368.5,307.5 368.5,308.5C 364.537,308.089 360.87,308.922 357.5,311C 352.089,319.082 345.922,326.582 339,333.5C 333.562,338.784 327.728,343.45 321.5,347.5C 321.5,347.167 321.5,346.833 321.5,346.5C 326.139,342.032 330.972,337.699 336,333.5C 338.234,331.296 339.401,328.63 339.5,325.5C 340.725,324.848 341.392,323.681 341.5,322C 340.837,318.527 340.504,315.027 340.5,311.5C 341.048,309.468 342.381,308.468 344.5,308.5C 344.679,310.954 344.013,313.121 342.5,315C 343.167,316 343.833,317 344.5,318C 343.541,320.12 343.374,322.287 344,324.5C 347.78,320.718 350.78,316.384 353,311.5C 352.842,308.821 352.342,306.154 351.5,303.5C 350.5,303.5 349.5,303.5 348.5,303.5C 348.335,300.482 348.502,297.482 349,294.5C 350.241,292.579 351.741,292.246 353.5,293.5C 351.744,295.191 351.244,297.191 352,299.5C 352.741,300.641 353.575,300.641 354.5,299.5C 355.17,301.291 355.837,302.958 356.5,304.5C 356.557,305.609 356.89,306.609 357.5,307.5C 357.56,308.043 357.893,308.376 358.5,308.5C 360.968,307.197 363.301,305.697 365.5,304C 368.146,303.503 370.813,303.336 373.5,303.5C 374.097,298.983 375.763,294.983 378.5,291.5 Z"/></g>
<g><path style="opacity:1" fill="#d5c0b6" d="M 373.5,314.5 C 373.027,313.094 372.027,312.427 370.5,312.5C 371.045,310.407 371.878,308.407 373,306.5C 375.091,305.5 376.757,306.167 378,308.5C 379.403,313.233 377.903,315.233 373.5,314.5 Z"/></g>
<g><path style="opacity:1" fill="#d7c2b4" d="M 143.5,329.5 C 145.917,331.411 148.25,333.578 150.5,336C 145.821,336.491 143.488,334.325 143.5,329.5 Z"/></g>
<g><path style="opacity:1" fill="#ba9d59" d="M 165.5,328.5 C 169.101,333.771 173.434,338.437 178.5,342.5C 178.5,343.167 178.167,343.5 177.5,343.5C 172.206,339.873 167.539,335.54 163.5,330.5C 164.833,330.5 165.5,329.833 165.5,328.5 Z"/></g>
<g><path style="opacity:1" fill="#b89945" d="M 152.5,335.5 C 156.5,340.167 160.833,344.5 165.5,348.5C 165.5,349.167 165.167,349.5 164.5,349.5C 160.203,346.871 156.537,343.537 153.5,339.5C 153.082,338.778 152.416,338.278 151.5,338C 152.252,337.329 152.586,336.496 152.5,335.5 Z"/></g>
<g><path style="opacity:1" fill="#b09450" d="M 362.5,316.5 C 362.5,318.833 362.5,321.167 362.5,323.5C 363.791,323.263 364.791,323.596 365.5,324.5C 362.944,325.543 360.777,327.21 359,329.5C 355.034,335.298 350.534,340.631 345.5,345.5C 351.566,347.104 354.899,344.771 355.5,338.5C 356.833,338.5 358.167,338.5 359.5,338.5C 359.607,340.903 358.607,342.736 356.5,344C 357.337,345.011 357.67,346.178 357.5,347.5C 351.409,347.618 345.409,348.451 339.5,350C 325.384,362.877 309.051,371.71 290.5,376.5C 289.833,376.5 289.5,376.167 289.5,375.5C 319.405,366.416 343.238,349.083 361,323.5C 361.186,320.964 361.686,318.631 362.5,316.5 Z"/></g>
<g><path style="opacity:1" fill="#bc9f5f" d="M 342.5,350.5 C 347.895,349.555 349.561,351.555 347.5,356.5C 346.571,355.311 346.238,353.978 346.5,352.5C 344.517,352.843 343.183,352.176 342.5,350.5 Z"/></g>
<g><path style="opacity:1" fill="#b69c69" d="M 178.5,342.5 C 187.429,349.431 197.096,355.097 207.5,359.5C 207.5,359.833 207.5,360.167 207.5,360.5C 196.508,356.491 186.508,350.825 177.5,343.5C 178.167,343.5 178.5,343.167 178.5,342.5 Z"/></g>
<g><path style="opacity:1" fill="#b9a077" d="M 321.5,346.5 C 321.5,346.833 321.5,347.167 321.5,347.5C 316.363,351.575 310.696,354.908 304.5,357.5C 304.158,356.662 303.492,356.328 302.5,356.5C 308.789,353.174 315.122,349.841 321.5,346.5 Z"/></g>
<g><path style="opacity:1" fill="#a68d56" d="M 165.5,348.5 C 172.577,354.252 179.91,359.585 187.5,364.5C 186.833,364.5 186.167,364.5 185.5,364.5C 177.659,360.657 170.659,355.657 164.5,349.5C 165.167,349.5 165.5,349.167 165.5,348.5 Z"/></g>
<g><path style="opacity:1" fill="#b19656" d="M 302.5,356.5 C 303.492,356.328 304.158,356.662 304.5,357.5C 292.652,363.893 279.986,367.226 266.5,367.5C 278.96,365.619 290.96,361.952 302.5,356.5 Z"/></g>
<g><path style="opacity:1" fill="#b59956" d="M 207.5,360.5 C 207.5,360.167 207.5,359.833 207.5,359.5C 226.474,366.881 246.141,369.547 266.5,367.5C 265.391,368.29 264.058,368.79 262.5,369C 253.833,369.667 245.167,369.667 236.5,369C 229.227,367.015 221.893,365.348 214.5,364C 212.047,363.041 209.714,361.874 207.5,360.5 Z"/></g>
<g><path style="opacity:1" fill="#af9146" d="M 185.5,364.5 C 186.167,364.5 186.833,364.5 187.5,364.5C 193.714,367.44 200.047,370.107 206.5,372.5C 208.515,373.924 210.848,374.59 213.5,374.5C 214.167,374.833 214.833,375.167 215.5,375.5C 213.019,376.258 210.352,376.258 207.5,375.5C 199.707,372.58 192.374,368.914 185.5,364.5 Z"/></g>
<g><path style="opacity:1" fill="#cfb689" d="M 206.5,372.5 C 209.152,372.41 211.485,373.076 213.5,374.5C 210.848,374.59 208.515,373.924 206.5,372.5 Z"/></g>
<g><path style="opacity:1" fill="#b49961" d="M 207.5,375.5 C 210.352,376.258 213.019,376.258 215.5,375.5C 224.613,378.188 233.946,379.855 243.5,380.5C 242.833,381.167 242.167,381.833 241.5,382.5C 229.914,380.765 218.58,378.431 207.5,375.5 Z"/></g>
<g><path style="opacity:1" fill="#bba16e" d="M 289.5,375.5 C 289.5,376.167 289.833,376.5 290.5,376.5C 284.59,378.155 278.59,379.822 272.5,381.5C 272.611,380.883 272.944,380.383 273.5,380C 271.866,379.506 270.199,379.34 268.5,379.5C 275.331,377.957 282.331,376.623 289.5,375.5 Z"/></g>
<g><path style="opacity:1" fill="#ab8d40" d="M 268.5,379.5 C 270.199,379.34 271.866,379.506 273.5,380C 272.944,380.383 272.611,380.883 272.5,381.5C 262.249,382.475 251.915,382.808 241.5,382.5C 242.167,381.833 242.833,381.167 243.5,380.5C 251.918,380.802 260.252,380.469 268.5,379.5 Z"/></g>
<g><path style="opacity:1" fill="#decbc7" d="M 434.5,382.5 C 435.461,384.265 435.795,386.265 435.5,388.5C 433.801,388.66 432.134,388.494 430.5,388C 431.665,386.008 432.998,384.175 434.5,382.5 Z"/></g>
</svg>
